
<svg
xmlns="http://www.w3.org/2000/svg"
width="1600"
height="1300"
viewBox="0 0 1600 1300">


    <defs>

        <filter id="shadow">
            <feDropShadow
                dx="0"
                dy="8"
                stdDeviation="12"
                flood-opacity="0.25"/>
        </filter>

        <linearGradient id="titleGradient">
            <stop offset="0%" stop-color="#58A6FF"/>
            <stop offset="100%" stop-color="#BC8CFF"/>
        </linearGradient>

        <linearGradient id="graphGradient"
            x1="0%"
            y1="0%"
            x2="0%"
            y2="100%">

            <stop
                offset="0%"
                stop-color="#39D353"
                stop-opacity="0.35"/>

            <stop
                offset="100%"
                stop-color="#39D353"
                stop-opacity="0"/>

        </linearGradient>

    </defs>
    





<!-- Dashboard Title -->

<text
x="70"
y="70"
font-size="42"
font-family="Inter,Segoe UI,Arial"
font-weight="700"
fill="url(#titleGradient)">
GitHub Dashboard
</text>

<!-- Live Indicator -->

<circle
cx="1360"
cy="58"
r="6"
fill="#3FB950">

<animate
attributeName="r"
values="5;7;5"
dur="1.8s"
repeatCount="indefinite"/>

</circle>

<text
x="1375"
y="64"
font-size="18"
font-family="Inter,Segoe UI,Arial"
fill="#3FB950">
Live from GitHub API
</text>






<g>

<rect
x="40"
y="120"
rx="24"
ry="24"
width="360"
height="760"
fill="#161B22"
stroke="#30363D"
stroke-width="1.5"
filter="url(#shadow)"/>

</g>



<rect
x="40"
y="120"
width="5"
height="760"
rx="3"
fill="#161B22"
filter="url(#shadow)"/>


<!-- Avatar Background -->

<circle
cx="220"
cy="250"
r="92"
fill="#0D1117"
stroke="#58A6FF"
stroke-width="5"/>

<!-- Avatar -->

<image
href="https://avatars.githubusercontent.com/u/223551007?v=4"
x="130"
y="160"
width="180"
height="180"
clip-path="circle(90px at 90px 90px)"/>

<!-- Rotating Ring -->

<circle
cx="220"
cy="250"
r="100"
fill="none"
stroke="#58A6FF"
stroke-width="3"
stroke-dasharray="8 12">

<animateTransform
attributeName="transform"
attributeType="XML"
type="rotate"
from="0 220 250"
to="360 220 250"
dur="20s"
repeatCount="indefinite"/>

</circle>

<!-- Name -->


<text
x="90"
y="405"
fill="#F0F6FC"
font-size="34"
font-family="Inter,Segoe UI,Arial"
font-weight="bold"
text-anchor="start">
Sudip Pal
</text>

<!-- Username -->


<text
x="90"
y="440"
fill="#8B949E"
font-size="20"
font-family="Inter,Segoe UI,Arial"
font-weight="normal"
text-anchor="start">
@sudip-29
</text>

<!-- Verified Badge -->

<circle
cx="315"
cy="397"
r="10"
fill="#58A6FF"/>

<text
x="311"
y="402"
font-size="12"
fill="white"
font-weight="bold">✓</text>

<!-- Bio -->


<text
x="90"
y="490"
font-size="18"
fill="#F0F6FC"
font-family="Inter,Segoe UI,Arial"
font-weight="normal">

<tspan
x="90"
dy="0">
No bio available
</tspan>
</text>


<!-- Divider -->

<line
x1="80"
y1="525"
x2="340"
y2="525"
stroke="#30363D"/>

<!-- Information -->


<text
x="90"
y="570"
fill="#8B949E"
font-size="18"
font-family="Inter,Segoe UI,Arial"
font-weight="normal"
text-anchor="start">
Joined
</text>

<text
x="190"
y="570"
fill="#F0F6FC"
font-size="18"
font-family="Inter,Segoe UI,Arial"
font-weight="normal"
text-anchor="start">
30/7/2025
</text>


<text
x="90"
y="620"
fill="#8B949E"
font-size="18"
font-family="Inter,Segoe UI,Arial"
font-weight="normal"
text-anchor="start">
Followers
</text>

<text
x="190"
y="620"
fill="#F0F6FC"
font-size="18"
font-family="Inter,Segoe UI,Arial"
font-weight="normal"
text-anchor="start">
3
</text>


<text
x="90"
y="670"
fill="#8B949E"
font-size="18"
font-family="Inter,Segoe UI,Arial"
font-weight="normal"
text-anchor="start">
Following
</text>

<text
x="190"
y="670"
fill="#F0F6FC"
font-size="18"
font-family="Inter,Segoe UI,Arial"
font-weight="normal"
text-anchor="start">
3
</text>


<text
x="90"
y="720"
fill="#8B949E"
font-size="18"
font-family="Inter,Segoe UI,Arial"
font-weight="normal"
text-anchor="start">
Location
</text>

<text
x="190"
y="720"
fill="#F0F6FC"
font-size="18"
font-family="Inter,Segoe UI,Arial"
font-weight="normal"
text-anchor="start">
Shyampur
</text>


<text
x="90"
y="770"
fill="#8B949E"
font-size="18"
font-family="Inter,Segoe UI,Arial"
font-weight="normal"
text-anchor="start">
Website
</text>

<text
x="190"
y="770"
fill="#58A6FF"
font-size="18"
font-family="Inter,Segoe UI,Arial"
font-weight="normal"
text-anchor="start">
Not Provided
</text>






<g>

<rect
x="440"
y="120"
rx="24"
ry="24"
width="330"
height="170"
fill="#161B22"
stroke="#30363D"
stroke-width="1.5"
filter="url(#shadow)"/>

</g>



<rect
x="440"
y="120"
width="5"
height="170"
rx="3"
fill="#161B22"
filter="url(#shadow)"/>



<polygon
points="
475,155
478,162
486,162
480,167
483,175
475,170
467,175
470,167
464,162
472,162"
fill="#FF7BCE"/>



<text
x="530"
y="172"
fill="#8B949E"
font-size="22"
font-family="Inter,Segoe UI,Arial"
font-weight="normal"
text-anchor="start">
Total Stars
</text>


<text
x="475"
y="245"
fill="#FF7BCE"
font-size="48"
font-family="Inter,Segoe UI,Arial"
font-weight="bold"
text-anchor="start">
1
</text>

<rect
x="475"
y="265"
width="250"
height="8"
rx="4"
fill="#21262D"/>

<rect
x="475"
y="265"
width="0"
height="8"
rx="4"
fill="#FF7BCE">

<animate
attributeName="width"
from="0"
to="180"
dur="1.2s"
fill="freeze"/>

</rect>






<g>

<rect
x="790"
y="120"
rx="24"
ry="24"
width="330"
height="170"
fill="#161B22"
stroke="#30363D"
stroke-width="1.5"
filter="url(#shadow)"/>

</g>



<rect
x="790"
y="120"
width="5"
height="170"
rx="3"
fill="#161B22"
filter="url(#shadow)"/>



<rect
x="817"
y="155"
width="16"
height="20"
rx="2"
fill="none"
stroke="#58A6FF"
stroke-width="2"/>

<line
x1="820"
y1="161"
x2="830"
y2="161"
stroke="#58A6FF"
stroke-width="2"/>

<line
x1="820"
y1="167"
x2="830"
y2="167"
stroke="#58A6FF"
stroke-width="2"/>



<text
x="880"
y="172"
fill="#8B949E"
font-size="22"
font-family="Inter,Segoe UI,Arial"
font-weight="normal"
text-anchor="start">
Repositories
</text>


<text
x="825"
y="245"
fill="#58A6FF"
font-size="48"
font-family="Inter,Segoe UI,Arial"
font-weight="bold"
text-anchor="start">
6
</text>

<rect
x="825"
y="265"
width="250"
height="8"
rx="4"
fill="#21262D"/>

<rect
x="825"
y="265"
width="0"
height="8"
rx="4"
fill="#58A6FF">

<animate
attributeName="width"
from="0"
to="180"
dur="1.2s"
fill="freeze"/>

</rect>






<g>

<rect
x="1140"
y="120"
rx="24"
ry="24"
width="330"
height="170"
fill="#161B22"
stroke="#30363D"
stroke-width="1.5"
filter="url(#shadow)"/>

</g>



<rect
x="1140"
y="120"
width="5"
height="170"
rx="3"
fill="#161B22"
filter="url(#shadow)"/>



<circle
cx="1175"
cy="160"
r="4"
fill="#3FB950"/>

<path
d="
M 1167 173
Q 1175 165
1183 173"
fill="none"
stroke="#3FB950"
stroke-width="2"/>



<text
x="1230"
y="172"
fill="#8B949E"
font-size="22"
font-family="Inter,Segoe UI,Arial"
font-weight="normal"
text-anchor="start">
Followers
</text>


<text
x="1175"
y="245"
fill="#3FB950"
font-size="48"
font-family="Inter,Segoe UI,Arial"
font-weight="bold"
text-anchor="start">
3
</text>

<rect
x="1175"
y="265"
width="250"
height="8"
rx="4"
fill="#21262D"/>

<rect
x="1175"
y="265"
width="0"
height="8"
rx="4"
fill="#3FB950">

<animate
attributeName="width"
from="0"
to="180"
dur="1.2s"
fill="freeze"/>

</rect>






<g>

<rect
x="440"
y="320"
rx="24"
ry="24"
width="330"
height="170"
fill="#161B22"
stroke="#30363D"
stroke-width="1.5"
filter="url(#shadow)"/>

</g>



<rect
x="440"
y="320"
width="5"
height="170"
rx="3"
fill="#161B22"
filter="url(#shadow)"/>



<circle cx="475" cy="355" r="3" fill="#BC8CFF"/>
<circle cx="467" cy="373" r="3" fill="#BC8CFF"/>
<circle cx="483" cy="373" r="3" fill="#BC8CFF"/>

<line
x1="475"
y1="358"
x2="475"
y2="367"
stroke="#BC8CFF"
stroke-width="2"/>

<line
x1="475"
y1="367"
x2="467"
y2="370"
stroke="#BC8CFF"
stroke-width="2"/>

<line
x1="475"
y1="367"
x2="483"
y2="370"
stroke="#BC8CFF"
stroke-width="2"/>



<text
x="530"
y="372"
fill="#8B949E"
font-size="22"
font-family="Inter,Segoe UI,Arial"
font-weight="normal"
text-anchor="start">
Forks
</text>


<text
x="475"
y="445"
fill="#BC8CFF"
font-size="48"
font-family="Inter,Segoe UI,Arial"
font-weight="bold"
text-anchor="start">
0
</text>

<rect
x="475"
y="465"
width="250"
height="8"
rx="4"
fill="#21262D"/>

<rect
x="475"
y="465"
width="0"
height="8"
rx="4"
fill="#BC8CFF">

<animate
attributeName="width"
from="0"
to="180"
dur="1.2s"
fill="freeze"/>

</rect>






<g>

<rect
x="790"
y="320"
rx="24"
ry="24"
width="330"
height="170"
fill="#161B22"
stroke="#30363D"
stroke-width="1.5"
filter="url(#shadow)"/>

</g>



<rect
x="790"
y="320"
width="5"
height="170"
rx="3"
fill="#161B22"
filter="url(#shadow)"/>



<circle
cx="825"
cy="360"
r="4"
fill="#39C5CF"/>

<path
d="
M 818 373
Q 825 365
832 373"
fill="none"
stroke="#39C5CF"
stroke-width="2"/>



<text
x="880"
y="372"
fill="#8B949E"
font-size="22"
font-family="Inter,Segoe UI,Arial"
font-weight="normal"
text-anchor="start">
Following
</text>


<text
x="825"
y="445"
fill="#39C5CF"
font-size="48"
font-family="Inter,Segoe UI,Arial"
font-weight="bold"
text-anchor="start">
3
</text>

<rect
x="825"
y="465"
width="250"
height="8"
rx="4"
fill="#21262D"/>

<rect
x="825"
y="465"
width="0"
height="8"
rx="4"
fill="#39C5CF">

<animate
attributeName="width"
from="0"
to="180"
dur="1.2s"
fill="freeze"/>

</rect>






<g>

<rect
x="1140"
y="320"
rx="24"
ry="24"
width="330"
height="170"
fill="#161B22"
stroke="#30363D"
stroke-width="1.5"
filter="url(#shadow)"/>

</g>



<rect
x="1140"
y="320"
width="5"
height="170"
rx="3"
fill="#161B22"
filter="url(#shadow)"/>



<path
d="
M 1175 353
Q 1185 365
1175 377
Q 1165 365
1175 353"
fill="#F0883E"/>



<text
x="1230"
y="372"
fill="#8B949E"
font-size="22"
font-family="Inter,Segoe UI,Arial"
font-weight="normal"
text-anchor="start">
Contributions
</text>


<text
x="1175"
y="445"
fill="#F0883E"
font-size="48"
font-family="Inter,Segoe UI,Arial"
font-weight="bold"
text-anchor="start">
204
</text>

<rect
x="1175"
y="465"
width="250"
height="8"
rx="4"
fill="#21262D"/>

<rect
x="1175"
y="465"
width="0"
height="8"
rx="4"
fill="#F0883E">

<animate
attributeName="width"
from="0"
to="180"
dur="1.2s"
fill="freeze"/>

</rect>






<g>

<rect
x="420"
y="520"
rx="24"
ry="24"
width="1080"
height="260"
fill="#161B22"
stroke="#30363D"
stroke-width="1.5"
filter="url(#shadow)"/>

</g>



<line
x1="440"
y1="570"
x2="1480"
y2="570"
stroke="#30363D"
stroke-width="1"/>

<line
x1="440"
y1="615"
x2="1480"
y2="615"
stroke="#30363D"
stroke-width="1"/>

<line
x1="440"
y1="660"
x2="1480"
y2="660"
stroke="#30363D"
stroke-width="1"/>

<line
x1="440"
y1="705"
x2="1480"
y2="705"
stroke="#30363D"
stroke-width="1"/>

<line
x1="440"
y1="750"
x2="1480"
y2="750"
stroke="#30363D"
stroke-width="1"/>



<text
x="470"
y="560"
fill="#F0F6FC"
font-size="28"
font-family="Inter,Segoe UI,Arial"
font-weight="bold"
text-anchor="start">
Contribution Activity
</text>

<!-- Filled Area -->
<path
d="M 450 750 L 450 730 L 469.61538461538464 729.6 L 489.2307692307692 730 L 508.84615384615387 730 L 528.4615384615385 730 L 548.0769230769231 728 L 567.6923076923077 727.2 L 587.3076923076924 726.8 L 606.9230769230769 723.6 L 626.5384615384615 726 L 646.1538461538462 730 L 665.7692307692307 728.4 L 685.3846153846155 730 L 705 730 L 724.6153846153846 730 L 744.2307692307693 730 L 763.8461538461538 730 L 783.4615384615386 730 L 803.0769230769231 730 L 822.6923076923077 730 L 842.3076923076924 730 L 861.9230769230769 730 L 881.5384615384615 727.6 L 901.1538461538462 730 L 920.7692307692308 730 L 940.3846153846155 728.4 L 960 730 L 979.6153846153846 730 L 999.2307692307693 730 L 1018.8461538461539 730 L 1038.4615384615386 730 L 1058.076923076923 730 L 1077.6923076923076 730 L 1097.3076923076924 730 L 1116.9230769230771 730 L 1136.5384615384614 722.4 L 1156.1538461538462 729.6 L 1175.769230769231 727.6 L 1195.3846153846155 730 L 1215 726.4 L 1234.6153846153848 728.4 L 1254.2307692307693 730 L 1273.8461538461538 724.8 L 1293.4615384615386 730 L 1313.076923076923 728.8 L 1332.6923076923076 729.6 L 1352.3076923076924 730 L 1371.9230769230771 729.2 L 1391.5384615384617 730 L 1411.1538461538462 725.6 L 1430.769230769231 718.8 L 1450.3846153846155 729.2 L 1470 712.4 L 1470 750 Z"
fill="url(#graphGradient)"
opacity="0.5"/>

<!-- Animated Line -->
<path
d="M 450 730 L 469.61538461538464 729.6 L 489.2307692307692 730 L 508.84615384615387 730 L 528.4615384615385 730 L 548.0769230769231 728 L 567.6923076923077 727.2 L 587.3076923076924 726.8 L 606.9230769230769 723.6 L 626.5384615384615 726 L 646.1538461538462 730 L 665.7692307692307 728.4 L 685.3846153846155 730 L 705 730 L 724.6153846153846 730 L 744.2307692307693 730 L 763.8461538461538 730 L 783.4615384615386 730 L 803.0769230769231 730 L 822.6923076923077 730 L 842.3076923076924 730 L 861.9230769230769 730 L 881.5384615384615 727.6 L 901.1538461538462 730 L 920.7692307692308 730 L 940.3846153846155 728.4 L 960 730 L 979.6153846153846 730 L 999.2307692307693 730 L 1018.8461538461539 730 L 1038.4615384615386 730 L 1058.076923076923 730 L 1077.6923076923076 730 L 1097.3076923076924 730 L 1116.9230769230771 730 L 1136.5384615384614 722.4 L 1156.1538461538462 729.6 L 1175.769230769231 727.6 L 1195.3846153846155 730 L 1215 726.4 L 1234.6153846153848 728.4 L 1254.2307692307693 730 L 1273.8461538461538 724.8 L 1293.4615384615386 730 L 1313.076923076923 728.8 L 1332.6923076923076 729.6 L 1352.3076923076924 730 L 1371.9230769230771 729.2 L 1391.5384615384617 730 L 1411.1538461538462 725.6 L 1430.769230769231 718.8 L 1450.3846153846155 729.2 L 1470 712.4"
fill="none"
stroke="#3FB950"
stroke-width="4"
stroke-linejoin="round"
stroke-linecap="round"
stroke-dasharray="1200"
stroke-dashoffset="1200">

<animate
attributeName="stroke-dashoffset"
from="1200"
to="0"
dur="2s"
fill="freeze"/>

</path>






<g>

<rect
x="420"
y="815"
rx="24"
ry="24"
width="610"
height="280"
fill="#161B22"
stroke="#30363D"
stroke-width="1.5"
filter="url(#shadow)"/>

</g>



<text
x="725"
y="845"
fill="#F0F6FC"
font-size="20"
font-family="Inter,Segoe UI,Arial"
font-weight="bold"
text-anchor="middle">
Recent Repository Activity
</text>




<text
x="460"
y="915"
fill="#F0F6FC"
font-size="18"
font-family="Inter,Segoe UI,Arial"
font-weight="bold"
text-anchor="start">
sudip-29
</text>


<text
x="820"
y="915"
fill="#D29922"
font-size="16"
font-family="Inter,Segoe UI,Arial"
font-weight="normal"
text-anchor="start">
⭐ 0
</text>


<text
x="885"
y="915"
fill="#BC8CFF"
font-size="16"
font-family="Inter,Segoe UI,Arial"
font-weight="normal"
text-anchor="start">
🍴 0
</text>


<text
x="940"
y="915"
fill="#8B949E"
font-size="14"
font-family="Inter,Segoe UI,Arial"
font-weight="normal"
text-anchor="start">
23 Jul 26
</text>




<text
x="460"
y="953"
fill="#F0F6FC"
font-size="18"
font-family="Inter,Segoe UI,Arial"
font-weight="bold"
text-anchor="start">
Mark-calculator
</text>


<text
x="820"
y="953"
fill="#D29922"
font-size="16"
font-family="Inter,Segoe UI,Arial"
font-weight="normal"
text-anchor="start">
⭐ 0
</text>


<text
x="885"
y="953"
fill="#BC8CFF"
font-size="16"
font-family="Inter,Segoe UI,Arial"
font-weight="normal"
text-anchor="start">
🍴 0
</text>


<text
x="940"
y="953"
fill="#8B949E"
font-size="14"
font-family="Inter,Segoe UI,Arial"
font-weight="normal"
text-anchor="start">
01 Jul 26
</text>




<text
x="460"
y="991"
fill="#F0F6FC"
font-size="18"
font-family="Inter,Segoe UI,Arial"
font-weight="bold"
text-anchor="start">
BrowseMe
</text>


<text
x="820"
y="991"
fill="#D29922"
font-size="16"
font-family="Inter,Segoe UI,Arial"
font-weight="normal"
text-anchor="start">
⭐ 0
</text>


<text
x="885"
y="991"
fill="#BC8CFF"
font-size="16"
font-family="Inter,Segoe UI,Arial"
font-weight="normal"
text-anchor="start">
🍴 0
</text>


<text
x="940"
y="991"
fill="#8B949E"
font-size="14"
font-family="Inter,Segoe UI,Arial"
font-weight="normal"
text-anchor="start">
25 May 26
</text>




<text
x="460"
y="1029"
fill="#F0F6FC"
font-size="18"
font-family="Inter,Segoe UI,Arial"
font-weight="bold"
text-anchor="start">
Facial-Recognition
</text>


<text
x="820"
y="1029"
fill="#D29922"
font-size="16"
font-family="Inter,Segoe UI,Arial"
font-weight="normal"
text-anchor="start">
⭐ 0
</text>


<text
x="885"
y="1029"
fill="#BC8CFF"
font-size="16"
font-family="Inter,Segoe UI,Arial"
font-weight="normal"
text-anchor="start">
🍴 0
</text>


<text
x="940"
y="1029"
fill="#8B949E"
font-size="14"
font-family="Inter,Segoe UI,Arial"
font-weight="normal"
text-anchor="start">
23 Dec 25
</text>




<text
x="460"
y="1067"
fill="#F0F6FC"
font-size="18"
font-family="Inter,Segoe UI,Arial"
font-weight="bold"
text-anchor="start">
CODESOFT_TASK-2
</text>


<text
x="820"
y="1067"
fill="#D29922"
font-size="16"
font-family="Inter,Segoe UI,Arial"
font-weight="normal"
text-anchor="start">
⭐ 0
</text>


<text
x="885"
y="1067"
fill="#BC8CFF"
font-size="16"
font-family="Inter,Segoe UI,Arial"
font-weight="normal"
text-anchor="start">
🍴 0
</text>


<text
x="940"
y="1067"
fill="#8B949E"
font-size="14"
font-family="Inter,Segoe UI,Arial"
font-weight="normal"
text-anchor="start">
22 Sept 25
</text>








<g>

<rect
x="1060"
y="830"
rx="24"
ry="24"
width="500"
height="260"
fill="#161B22"
stroke="#30363D"
stroke-width="1.5"
filter="url(#shadow)"/>

</g>



<text
x="1270"
y="860"
fill="#F0F6FC"
font-size="20"
font-family="Inter,Segoe UI,Arial"
font-weight="bold"
text-anchor="middle">
Languages
</text>


<circle
cx="1185"
cy="965"
r="78"
fill="none"
stroke="#58A6FF"
stroke-width="22"
stroke-linecap="round"
transform="rotate(-90 1185 965)"
stroke-dasharray="274.5667560241029 490.0884539600077"
stroke-dashoffset="0">

<animate
attributeName="stroke-dashoffset"
from="490.0884539600077"
to="0"
dur="1.5s"
fill="freeze"/>

</circle>

<circle
cx="1185"
cy="965"
r="78"
fill="none"
stroke="#3FB950"
stroke-width="22"
stroke-linecap="round"
transform="rotate(-90 1185 965)"
stroke-dasharray="72.8088001828123 490.0884539600077"
stroke-dashoffset="-274.5667560241029">

<animate
attributeName="stroke-dashoffset"
from="490.0884539600077"
to="-274.5667560241029"
dur="1.5s"
fill="freeze"/>

</circle>

<circle
cx="1185"
cy="965"
r="78"
fill="none"
stroke="#F0883E"
stroke-width="22"
stroke-linecap="round"
transform="rotate(-90 1185 965)"
stroke-dasharray="61.350213542271746 490.0884539600077"
stroke-dashoffset="-347.37555620691523">

<animate
attributeName="stroke-dashoffset"
from="490.0884539600077"
to="-347.37555620691523"
dur="1.5s"
fill="freeze"/>

</circle>

<circle
cx="1185"
cy="965"
r="78"
fill="none"
stroke="#BC8CFF"
stroke-width="22"
stroke-linecap="round"
transform="rotate(-90 1185 965)"
stroke-dasharray="56.45563458485546 490.0884539600077"
stroke-dashoffset="-408.72576974918695">

<animate
attributeName="stroke-dashoffset"
from="490.0884539600077"
to="-408.72576974918695"
dur="1.5s"
fill="freeze"/>

</circle>

<circle
cx="1185"
cy="965"
r="78"
fill="none"
stroke="#FF7BCE"
stroke-width="22"
stroke-linecap="round"
transform="rotate(-90 1185 965)"
stroke-dasharray="24.907049625965254 490.0884539600077"
stroke-dashoffset="-465.18140433404244">

<animate
attributeName="stroke-dashoffset"
from="490.0884539600077"
to="-465.18140433404244"
dur="1.5s"
fill="freeze"/>

</circle>


<circle
cx="1185"
cy="965"
r="55"
fill="#161B22"/>


<text
x="1185"
y="957"
fill="#8B949E"
font-size="16"
font-family="Inter,Segoe UI,Arial"
font-weight="bold"
text-anchor="middle">
Top
</text>


<text
x="1185"
y="981"
fill="#F0F6FC"
font-size="16"
font-family="Inter,Segoe UI,Arial"
font-weight="bold"
text-anchor="middle">
Languages
</text>


<circle
cx="1295"
cy="890"
r="7"
fill="#58A6FF"/>


<text
x="1310"
y="895"
fill="#F0F6FC"
font-size="14"
font-family="Inter,Segoe UI,Arial"
font-weight="normal"
text-anchor="start">
Kotlin (56.0%)
</text>

<circle
cx="1295"
cy="920"
r="7"
fill="#3FB950"/>


<text
x="1310"
y="925"
fill="#F0F6FC"
font-size="14"
font-family="Inter,Segoe UI,Arial"
font-weight="normal"
text-anchor="start">
JavaScript (14.9%)
</text>

<circle
cx="1295"
cy="950"
r="7"
fill="#F0883E"/>


<text
x="1310"
y="955"
fill="#F0F6FC"
font-size="14"
font-family="Inter,Segoe UI,Arial"
font-weight="normal"
text-anchor="start">
HTML (12.5%)
</text>

<circle
cx="1295"
cy="980"
r="7"
fill="#BC8CFF"/>


<text
x="1310"
y="985"
fill="#F0F6FC"
font-size="14"
font-family="Inter,Segoe UI,Arial"
font-weight="normal"
text-anchor="start">
CSS (11.5%)
</text>

<circle
cx="1295"
cy="1010"
r="7"
fill="#FF7BCE"/>


<text
x="1310"
y="1015"
fill="#F0F6FC"
font-size="14"
font-family="Inter,Segoe UI,Arial"
font-weight="normal"
text-anchor="start">
Python (5.1%)
</text>






<line
x1="40"
y1="1120"
x2="1560"
y2="1120"
stroke="#30363D"/>


<text
x="60"
y="1160"
fill="#8B949E"
font-size="16"
font-family="Inter,Segoe UI,Arial"
font-weight="normal"
text-anchor="start">
Updated: 23/7/2026, 5:51:33 am
</text>


<text
x="1320"
y="1160"
fill="#58A6FF"
font-size="16"
font-family="Inter,Segoe UI,Arial"
font-weight="normal"
text-anchor="start">
Built by Sudip Pal
</text>





</svg>